<?xml version="1.0" encoding="utf-8"?>
<svg viewBox="146.567 137.681 214.052 226.244" xmlns="http://www.w3.org/2000/svg">
  <path d="M 251.613 358.161 Q 232.844 358.161 215.459 351.391 Q 198.074 344.622 184.381 331.237 Q 170.688 317.852 162.688 297.851 Q 154.688 277.851 154.688 251.081 Q 154.688 224.619 162.688 204.618 Q 170.688 184.618 184.535 171.233 Q 198.381 157.848 215.766 150.925 Q 233.151 144.001 251.613 144.001 Q 270.383 144.001 287.768 150.617 Q 305.153 157.233 318.846 170.617 Q 332.539 184.002 340.539 204.157 Q 348.539 224.311 348.539 251.081 Q 348.539 277.236 340.539 297.39 Q 332.539 317.544 318.846 330.929 Q 305.153 344.314 287.768 351.237 Q 270.383 358.161 251.613 358.161 Z M 251.613 351.699 Q 268.537 351.699 278.999 342.622 Q 289.461 333.545 294.23 311.544 Q 298.999 289.544 298.999 251.081 Q 298.999 212.311 294.23 190.31 Q 289.461 168.31 278.999 159.233 Q 268.537 150.155 251.613 150.155 Q 234.998 150.155 224.536 159.233 Q 214.074 168.31 209.305 190.31 Q 204.535 212.311 204.535 251.081 Q 204.535 289.544 209.305 311.544 Q 214.074 333.545 224.536 342.622 Q 234.998 351.699 251.613 351.699 Z" style="fill: rgb(255, 255, 255);"/>
</svg>